<svg width="136" height="45" viewBox="0 0 136 45" fill="none" xmlns="http://www.w3.org/2000/svg">
        <path fill-rule="evenodd" clip-rule="evenodd" d="M12.8122 0.205078H15.9398H20.9587H25.3054L37.3243 43.9796H27.5049L24.9669 34.373H12.4426L10.0482 43.9796H0.75293L12.8122 0.205078ZM14.1422 27.5538H23.1652L18.5223 9.98L14.1422 27.5538Z" fill="#D71B1B"/>
        <path fill-rule="evenodd" clip-rule="evenodd" d="M50.2806 0.205078H40.9854V43.9796H50.2806V27.8827H54.1767C54.466 28.3832 54.8191 28.996 55.209 29.6727C56.878 32.5693 59.222 36.6373 60.1273 38.0876C60.2525 38.2881 60.376 38.4981 60.5032 38.7144L60.5032 38.7145C61.9239 41.1299 63.8096 44.3361 73.6563 43.9737L62.8186 25.4135V25.3174C67.0154 23.1203 69.874 18.764 69.874 13.7488V11.1618C69.874 5.11056 64.9032 0.205078 58.7715 0.205078H50.2806H50.2806ZM50.2806 8.26254V19.909H54.9936C57.8891 19.909 60.2364 17.5926 60.2364 14.735V12.8278C60.2364 10.3065 58.1653 8.26254 55.6104 8.26254H50.2806Z" fill="#D71B1B"/>
        <path fill-rule="evenodd" clip-rule="evenodd" d="M80.7845 0.205078H77.79V43.9796H87.0853L102.533 43.9796V37.1604H87.0853V24.4672H100.878V17.6479H87.0853V6.95253H97.2048C99.0167 6.95253 100.646 5.86328 101.318 4.20263L102.151 2.14319L102.751 0.205078H87.0853H80.7845Z" fill="#D71B1B"/>
        <path fill-rule="evenodd" clip-rule="evenodd" d="M116.408 0.205078H107.112V43.9796H116.408L116.408 26.1181H124.489C130.621 26.1181 135.592 21.2127 135.592 15.1614V10.5531C135.592 4.83803 130.897 0.205078 125.106 0.205078H116.408H116.408ZM116.408 6.95253L116.408 19.3707H120.711C123.607 19.3707 125.954 17.0542 125.954 14.1967V11.5178C125.954 8.99648 123.883 6.95253 121.328 6.95253H116.408Z" fill="#D71B1B"/>
    </svg>
